<svg width="200" height="200" viewBox="0 0 200 200" fill="none" xmlns="http://www.w3.org/2000/svg">
  <path d="M80.62 53.9C90.3844 53.9 98.3 45.9844 98.3 36.22C98.3 26.4556 90.3844 18.54 80.62 18.54C70.8556 18.54 62.94 26.4556 62.94 36.22C62.94 45.9844 70.8556 53.9 80.62 53.9Z" fill="#CC004C" stroke="black" stroke-width="3" stroke-miterlimit="10" stroke-linecap="round" stroke-linejoin="round"/>
  <path d="M82.48 31.36C78.32 32.5 74.94 36.1 74.06 40.32" stroke="black" stroke-width="3" stroke-miterlimit="10" stroke-linecap="round" stroke-linejoin="round"/>
  <path d="M117.06 50.36C126.824 50.36 134.74 42.4444 134.74 32.68C134.74 22.9156 126.824 15 117.06 15C107.296 15 99.38 22.9156 99.38 32.68C99.38 42.4444 107.296 50.36 117.06 50.36Z" fill="#CC004C" stroke="black" stroke-width="3" stroke-miterlimit="10" stroke-linecap="round" stroke-linejoin="round"/>
  <path d="M109.38 17.4399C108.1 19.3799 107.08 20.9399 107.3 23.2599C107.52 25.5799 108.56 27.8199 110.2 29.4799C111.4 30.6999 113.1 31.6599 114.78 31.2599" stroke="black" stroke-width="3" stroke-miterlimit="10" stroke-linecap="round" stroke-linejoin="round"/>
  <path d="M66.68 74.7999C76.4444 74.7999 84.36 66.8843 84.36 57.1199C84.36 47.3555 76.4444 39.4399 66.68 39.4399C56.9156 39.4399 49 47.3555 49 57.1199C49 66.8843 56.9156 74.7999 66.68 74.7999Z" fill="#CC004C" stroke="black" stroke-width="3" stroke-miterlimit="10" stroke-linecap="round" stroke-linejoin="round"/>
  <path d="M67.94 41.5C62.56 46.74 61.36 55.54 65.08 62.66C65.9 64.26 67.18 65.9 68.98 66.24C70.4 66.5 71.68 65.84 72.48 65.1C73.38 64.26 73.94 63.16 74.5 62.06" stroke="black" stroke-width="3" stroke-miterlimit="10" stroke-linecap="round" stroke-linejoin="round"/>
  <path d="M133.32 72.52C143.084 72.52 151 64.6044 151 54.84C151 45.0756 143.084 37.16 133.32 37.16C123.556 37.16 115.64 45.0756 115.64 54.84C115.64 64.6044 123.556 72.52 133.32 72.52Z" fill="#CC004C" stroke="black" stroke-width="3" stroke-miterlimit="10" stroke-linecap="round" stroke-linejoin="round"/>
  <path d="M139.02 39.42C131.96 41.96 127.22 49.48 127.66 57.5C127.76 59.3 128.22 61.32 129.72 62.38C130.9 63.22 132.36 63.14 133.38 62.8C134.54 62.4 135.52 61.64 136.48 60.88" stroke="black" stroke-width="3" stroke-miterlimit="10" stroke-linecap="round" stroke-linejoin="round"/>
  <path d="M118.44 141.58H80.62L89.34 180.72C89.34 186.42 109.74 186.42 109.74 180.72L118.44 141.58Z" fill="white" stroke="black" stroke-width="3" stroke-miterlimit="10" stroke-linecap="round" stroke-linejoin="round"/>
  <path d="M49 71.7999L82.04 141.58H107.62L119.76 61.3999C89.68 58.9399 49 62.4199 49 71.7999Z" fill="white" stroke="black" stroke-width="3" stroke-miterlimit="10" stroke-linecap="round" stroke-linejoin="round"/>
  <path d="M119.74 64.58L108.08 141.58H119.84L150.06 74.58C150.08 69.3 136.66 65.96 119.74 64.58Z" fill="white" stroke="black" stroke-width="3" stroke-miterlimit="10" stroke-linecap="round" stroke-linejoin="round"/>
  <path d="M114.14 154.56C104.4 155.86 94.66 155.86 84.94 154.56C80.7 154 77.24 150.76 76.5 146.54C76.12 144.36 75.9 142.18 75.82 140C75.7 136.34 78.54 133.3 82.2 133C93.76 132.06 105.32 132.06 116.88 133C120.52 133.3 123.36 136.34 123.26 140C123.2 142.18 122.96 144.36 122.58 146.54C121.84 150.74 118.38 153.98 114.14 154.56Z" fill="#F8AFB4" stroke="black" stroke-width="3" stroke-miterlimit="10" stroke-linecap="round" stroke-linejoin="round"/>
  <path d="M99.38 71.58C109.144 71.58 117.06 63.6644 117.06 53.9C117.06 44.1356 109.144 36.22 99.38 36.22C89.6156 36.22 81.7 44.1356 81.7 53.9C81.7 63.6644 89.6156 71.58 99.38 71.58Z" fill="#CC004C" stroke="black" stroke-width="3" stroke-miterlimit="10" stroke-linecap="round" stroke-linejoin="round"/>
  <path d="M105.1 37.1599C98.04 39.6999 93.3 47.2199 93.74 55.2399C93.84 57.0399 94.3 59.0599 95.8 60.1199C96.98 60.9599 98.44 60.8799 99.46 60.5399C100.62 60.1399 101.6 59.3799 102.56 58.6199" stroke="black" stroke-width="3" stroke-miterlimit="10" stroke-linecap="round" stroke-linejoin="round"/>
</svg>
