<svg width="204" height="195" viewBox="0 0 204 195" fill="none" xmlns="http://www.w3.org/2000/svg">
  <path d="M125.542 37.2437C125.542 59.8661 102.869 80.0954 102.869 80.0954C102.869 80.0954 80.1963 59.8661 80.1963 37.2437C80.1963 20.7933 85.5622 8.52474 93.3213 2C93.145 2 102.869 11.5226 102.869 11.5226C102.869 11.5226 112.593 2 112.417 2C120.176 8.49955 125.542 20.7933 125.542 37.2437Z" fill="#F8AFB4" stroke="#333435" stroke-width="3" stroke-miterlimit="10" stroke-linecap="round" stroke-linejoin="round"/>
  <path d="M102.869 80.0954V39.7881" stroke="#333435" stroke-width="3" stroke-miterlimit="10" stroke-linecap="round" stroke-linejoin="round"/>
  <path d="M45.4816 60.6219C66.9956 67.6001 79.239 95.4373 79.239 95.4373C79.239 95.4373 52.9889 110.754 31.4749 103.751C15.8306 98.6619 5.80416 89.7691 2.00016 80.3977C1.94977 80.5488 14.0168 74.2508 14.0168 74.2508C14.0168 74.2508 7.97067 62.0579 7.92029 62.209C16.5108 56.8683 29.8374 55.5331 45.4816 60.6219Z" fill="#F8AFB4" stroke="#333435" stroke-width="3" stroke-miterlimit="10" stroke-linecap="round" stroke-linejoin="round"/>
  <path d="M79.239 95.4374L40.8967 82.9673" stroke="#333435" stroke-width="3" stroke-miterlimit="10" stroke-linecap="round" stroke-linejoin="round"/>
  <path d="M42.9876 144.008C56.289 125.718 86.5195 122.67 86.5195 122.67C86.5195 122.67 92.9687 152.371 79.6673 170.661C69.9935 183.962 58.4304 190.739 48.3535 191.47C48.4795 191.57 46.2122 178.143 46.2122 178.143C46.2122 178.143 32.7596 180.133 32.8856 180.234C30.442 170.384 33.3139 157.309 42.9876 144.008Z" fill="#F8AFB4" stroke="#333435" stroke-width="3" stroke-miterlimit="10" stroke-linecap="round" stroke-linejoin="round"/>
  <path d="M86.5195 122.645L62.839 155.268" stroke="#333435" stroke-width="3" stroke-miterlimit="10" stroke-linecap="round" stroke-linejoin="round"/>
  <path d="M121.511 172.122C108.21 153.832 114.659 124.131 114.659 124.131C114.659 124.131 144.889 127.179 158.191 145.469C167.865 158.77 170.737 171.87 168.293 181.695C168.419 181.594 154.966 179.604 154.966 179.604C154.966 179.604 152.699 193.031 152.825 192.93C142.748 192.225 131.185 185.448 121.511 172.122Z" fill="#F8AFB4" stroke="#333435" stroke-width="3" stroke-miterlimit="10" stroke-linecap="round" stroke-linejoin="round"/>
  <path d="M114.659 124.131L138.34 156.729" stroke="#333435" stroke-width="3" stroke-miterlimit="10" stroke-linecap="round" stroke-linejoin="round"/>
  <path d="M172.525 106.144C151.011 113.122 124.761 97.8305 124.761 97.8305C124.761 97.8305 137.004 70.0185 158.518 63.0151C174.163 57.9263 187.489 59.2363 196.08 64.6022C196.029 64.451 189.983 76.644 189.983 76.644C189.983 76.644 202.05 82.942 202 82.7908C198.196 92.1623 188.169 101.055 172.525 106.144Z" fill="#F8AFB4" stroke="#333435" stroke-width="3" stroke-miterlimit="10" stroke-linecap="round" stroke-linejoin="round"/>
  <path d="M124.761 97.8305L163.103 85.3856" stroke="#333435" stroke-width="3" stroke-miterlimit="10" stroke-linecap="round" stroke-linejoin="round"/>
</svg>
